<svg xmlns="http://www.w3.org/2000/svg" viewBox="0 0 38.49 36.01"><defs><style>.cls-1{fill:#f4f4f2;}</style></defs><g id="Capa_2" data-name="Capa 2"><g id="Capa_1-2" data-name="Capa 1"><path class="cls-1" d="M23.87,7v4.86a2.08,2.08,0,0,1-1.5,1.8c-.3.06-.51-.14-.75-.26a5.8,5.8,0,0,0-8,7.62,5.52,5.52,0,0,0,5.24,3.39,5.11,5.11,0,0,0,1.86-.26.72.72,0,0,1,.89.21c.56.56,1.15,1.11,1.75,1.63a1.34,1.34,0,0,1,.48,1.1c0,2.25,0,4.5,0,6.75,0,1.59-.65,2.21-2.23,2.21H14.07C12.49,36,12,35.5,12,34v-8.7c0-.85,0-.85-.82-.85h-9C.65,24.39,0,23.75,0,22.21V13.69c0-1.46.65-2.09,2.14-2.09,3,0,6,0,9.08,0,.57,0,.77-.15.76-.75C12,7.92,12,5,12,2c0-1.41.62-2,2-2h7.76c1.41,0,2.06.63,2.08,2C23.89,3.68,23.87,5.32,23.87,7Z"/><path class="cls-1" d="M33.62,3.2A4.89,4.89,0,0,1,34.14,13a4.69,4.69,0,0,1-2.44-.53.54.54,0,0,0-.72.07q-3.24,3.09-6.53,6.12c-.42.39-.45.63,0,1.06,1.07,1.13,2.21,2.18,3.38,3.21a.93.93,0,0,1,.39,1c-.1.41-.1.84-.16,1.25-.1.6-.35.74-.93.57a2.15,2.15,0,0,1-.81-.48c-1.47-1.2-2.78-2.57-4.12-3.9-.28-.28-.46-.4-.79,0-1.95,2.1-5.39.89-6.07-1.86a3.78,3.78,0,0,1,1.14-4,3.64,3.64,0,0,1,3.85-.62A3.74,3.74,0,0,1,22,16.3c.26.38.46.4.78.07,1.95-2,4-3.75,6.1-5.58a.89.89,0,0,0,.28-1.18A4.76,4.76,0,0,1,33.62,3.2Zm.1,6.83a2,2,0,0,0,1.9-1.95,2,2,0,0,0-1.94-1.91,1.94,1.94,0,0,0-1.88,2A1.86,1.86,0,0,0,33.72,10Z"/><path class="cls-1" d="M31.86,35.09a4.92,4.92,0,0,0,5.35-4,4.86,4.86,0,0,0-3.75-5.57,4.76,4.76,0,0,0-2.48.25.54.54,0,0,1-.71-.15q-2.88-3.4-5.82-6.78c-.37-.42-.37-.66.08-1,1.2-1,2.44-1.91,3.72-2.79a1,1,0,0,0,.51-1c-.06-.42,0-.84,0-1.26,0-.59-.26-.76-.86-.66a2.29,2.29,0,0,0-.86.38c-1.59,1-3,2.23-4.52,3.4-.31.24-.5.34-.79-.05C20,13.54,16.44,14.36,15.45,17a3.74,3.74,0,0,0,.7,4.09,3.62,3.62,0,0,0,3.75,1,3.77,3.77,0,0,0,1.91-1.27c.29-.34.5-.34.78,0C24.31,23,26.18,25,28,27.06a.89.89,0,0,1,.15,1.2A4.74,4.74,0,0,0,31.86,35.09Zm.85-6.73a1.94,1.94,0,0,1,1.68,2.13,2,2,0,0,1-2.14,1.68A1.94,1.94,0,0,1,30.6,30,1.85,1.85,0,0,1,32.71,28.36Z"/></g></g></svg>