<svg xmlns="http://www.w3.org/2000/svg" viewBox="0 0 87.26 84.9"><defs><style>.cls-1{fill:#1d1d1b;}</style></defs><g id="Capa_2" data-name="Capa 2"><g id="Capa_1-2" data-name="Capa 1"><path class="cls-1" d="M11.8,30.61a27.62,27.62,0,0,1,1.32-10.5h0c.6-1.26,1.14-2.55,1.8-3.78a11.74,11.74,0,0,1,7.68-6c6.15-1.63,11.3.32,15.59,5.22,1.19,1.36,2.19,2.89,3.33,4.3h0a18.54,18.54,0,0,0,2.12,3.5c.41.58.86.56,1.24-.07a4,4,0,0,0,.72-1.45h0a58.77,58.77,0,0,1,3.7-6.35c4.47-6,12.07-9.85,19.77-7.29,6.11,2,10.18,6.54,12.41,13A43.6,43.6,0,0,1,83,27.39a1.14,1.14,0,0,0,.42.73c0-1.18.06-2.36,0-3.52a26,26,0,0,0-1.29-7.54,16.09,16.09,0,0,0-2.81-5.4c-3.58-4.93-8.1-8.28-14-9.09C57.56,1.5,51,4.13,45.66,10.41c-.88,1.05-.86,1.07-1.61-.07A22.8,22.8,0,0,0,31.37.89a2.28,2.28,0,0,0-.45,0h0a12.4,12.4,0,0,0-4.24-.8C18-.51,11.24,3.38,5.89,10.39,1.24,16.48-.4,23.63.08,31.38a47.49,47.49,0,0,0,8,23A81.12,81.12,0,0,0,30.12,77.08a78.12,78.12,0,0,0,13.74,7.59l.61.23a6.69,6.69,0,0,0-1.35-1.59c-.44-.46-.91-.87-1.37-1.31h0c-2.5-2.76-5.07-5.46-7.49-8.31a123.88,123.88,0,0,1-16.9-24.57,11.15,11.15,0,0,1-1.82-3.95A44.61,44.61,0,0,1,11.8,30.61Z"/><path class="cls-1" d="M85.1,53.08H82.23l-6.7-.38-14-.76-.31-1.32v0a.65.65,0,0,1,0-.13l-1.72-7.2q-1.44-6.43-2.87-12.88l-2.7-13.45a4.59,4.59,0,0,0-.66,1.31h0l-.58,2.67c-.08.31-.15.63-.2.95L45.77,53,39.83,28.17l.05-.2-.1,0,0-.07,0,.06-.42-.11-6,23.65-26.34,2L0,53.77l1,.31c10.13,1.68,20.47,1.37,30.7,2.06,5.78.38,5.79.26,7-5.57h0a2,2,0,0,1,.15-.38c.08-.15.14-.25.21-.25s.14.1.24.26a1.46,1.46,0,0,1,.09.16l5.58,19,2,6.13h0l.24-.07,1.34-5.78,5-21.75,6.49,19.85,0,.09.26.78.22.1,5.25-11.24h0l0-.05L75.07,56l12.19-2.32-.08-.51,0,0Z"/></g></g></svg>