<svg xmlns="http://www.w3.org/2000/svg" viewBox="0 0 96.7 34.56"><defs><style>.cls-1{fill:#f4f4f2;}</style></defs><g id="Capa_2" data-name="Capa 2"><g id="Capa_1-2" data-name="Capa 1"><path class="cls-1" d="M22.9,6.68c0,1.56,0,3.11,0,4.66a2,2,0,0,1-1.43,1.73c-.3.06-.5-.14-.72-.25a5.54,5.54,0,0,0-6.63,1.06,5.6,5.6,0,0,0-1,6.25,5.32,5.32,0,0,0,5,3.25,4.71,4.71,0,0,0,1.79-.25.72.72,0,0,1,.86.2c.53.55,1.09,1.07,1.67,1.57A1.28,1.28,0,0,1,22.91,26c0,2.16,0,4.32,0,6.48,0,1.52-.62,2.12-2.14,2.12H13.5c-1.52,0-2-.48-2-2V24.22c0-.81,0-.81-.79-.81H2.1c-1.47,0-2.09-.62-2.1-2.1V13.14c0-1.41.62-2,2.05-2,2.91,0,5.81,0,8.72,0,.54,0,.73-.15.73-.71,0-2.83,0-5.65,0-8.48,0-1.36.59-1.94,2-1.95H20.9c1.35,0,2,.6,2,2C22.92,3.53,22.9,5.11,22.9,6.68Z"/><path class="cls-1" d="M32.3,3.13A4.73,4.73,0,0,1,37,7.55a4.66,4.66,0,0,1-4.17,4.93,4.52,4.52,0,0,1-2.34-.5c-.26-.12-.44-.17-.69.07-2.08,2-4.16,3.93-6.27,5.87-.4.37-.42.6,0,1,1,1.09,2.12,2.1,3.24,3.08a.92.92,0,0,1,.38,1,11.93,11.93,0,0,0-.16,1.2c-.09.57-.33.7-.89.55a2.27,2.27,0,0,1-.78-.46c-1.41-1.16-2.66-2.47-4-3.75-.27-.27-.44-.39-.76,0-1.87,2-5.17.85-5.83-1.78a3.62,3.62,0,0,1,1.1-3.86,3.5,3.5,0,0,1,3.69-.6,3.56,3.56,0,0,1,1.68,1.43c.25.36.44.39.75.07,1.87-1.87,3.87-3.6,5.85-5.35a.86.86,0,0,0,.28-1.13A4.57,4.57,0,0,1,32.3,3.13Zm.1,6.55a1.86,1.86,0,0,0,1.82-1.86A1.9,1.9,0,0,0,32.36,6a1.86,1.86,0,0,0-1.8,1.88A1.78,1.78,0,0,0,32.4,9.68Z"/><path class="cls-1" d="M56.81,8.36l-2.26,5.13c-.27.61-.54,1.22-.79,1.84a.68.68,0,0,1-.69.46c-1.51.05-1.51.06-2.12-1.31-.83-1.88-1.65-3.77-2.48-5.65-.08-.2-.18-.39-.34-.72v8.56c0,.92,0,.92-.94.92-1.53,0-1.53,0-1.53-1.54,0-3.73,0-7.46,0-11.19,0-.59.13-.86.77-.78a7.4,7.4,0,0,0,1.63,0c.6-.07.85.19,1.07.7,1,2.33,2,4.63,3,6.94l.36.83c.25,0,.23-.23.29-.36q1.66-3.79,3.3-7.6A.77.77,0,0,1,56.93,4c.68,0,1.37.06,2.06.06.33,0,.41.16.4.44s0,.73,0,1.09c0,3.74,0,7.47,0,11.2,0,.61-.17.81-.78.8-1.7,0-1.7,0-1.7-1.7V8.41Z"/><path class="cls-1" d="M79.69,16.62a4.55,4.55,0,0,1-2.88,1.22,4.67,4.67,0,0,1-4.88-4.52A5.33,5.33,0,0,1,73.5,8.74a4.49,4.49,0,0,1,5.94-.18c.2-.13.11-.33.11-.49,0-1.27,0-2.54,0-3.81,0-.47.16-.65.63-.64C82.34,3.68,82,3.3,82,5.37c0,3.79,0,7.59,0,11.38,0,.84,0,.84-.84.84a4.14,4.14,0,0,0-.61,0C79.94,17.67,79.55,17.5,79.69,16.62Zm-.13-4h0V11.2a.86.86,0,0,0-.21-.61,2.76,2.76,0,0,0-4.23,0,3.6,3.6,0,0,0-.51,3,2.65,2.65,0,0,0,3.66,2,1.8,1.8,0,0,0,1.3-1.87Z"/><path class="cls-1" d="M31.53,24.69c0,2.57,1.29,4.27,3.51,4.65a3.67,3.67,0,0,0,3-.9c.44-.38.71-.34,1,.11a1.54,1.54,0,0,0,.25.26c.81.87.81.89-.19,1.61a6.35,6.35,0,0,1-10.08-4.36,7,7,0,0,1,2.84-7.13,6,6,0,0,1,7.72.65c.35.34.46.63,0,1s-.54.73-.9.87-.66-.4-1-.62a3.94,3.94,0,0,0-6.07,2.61A4.54,4.54,0,0,0,31.53,24.69Z"/><path class="cls-1" d="M67.12,13.47H64.28c-.48,0-.59.19-.47.64A2.82,2.82,0,0,0,67,16a3.92,3.92,0,0,0,1.89-.73c.32-.26.51-.27.77.1.79,1.15.8,1.3-.47,1.88A5.68,5.68,0,0,1,63,16.69a4.65,4.65,0,0,1-1.72-3.84,4.94,4.94,0,0,1,2.07-4.52,4.57,4.57,0,0,1,7.2,3.36,11.9,11.9,0,0,1,.06,1.2c0,.52-.24.6-.66.59C69,13.46,68.05,13.47,67.12,13.47ZM66,11.85h0c.56,0,1.13,0,1.69,0s.57-.17.47-.61A2.13,2.13,0,0,0,66,9.49a2.34,2.34,0,0,0-2.21,1.89c-.05.36.11.48.44.47Z"/><path class="cls-1" d="M45.43,31.54a4.61,4.61,0,0,1-4.74-4.85,4.75,4.75,0,1,1,9.5,0A4.52,4.52,0,0,1,45.43,31.54Zm2.42-4.79a2.63,2.63,0,0,0-1.65-2.7,2.15,2.15,0,0,0-2.42.61A3.06,3.06,0,0,0,43.27,28a2.22,2.22,0,0,0,2,1.58C46.79,29.64,47.85,28.47,47.85,26.75Z"/><path class="cls-1" d="M76.67,27.42c-.91,0-1.82,0-2.72,0-.39,0-.49.12-.41.5a2.45,2.45,0,0,0,2.14,1.87,3.66,3.66,0,0,0,2.73-.73c.33-.27.51-.26.76.1.68,1,.67,1.09-.38,1.73-1.75,1.07-5.16,1-6.62-1a5.36,5.36,0,0,1-.55-5.4,4.16,4.16,0,0,1,3.77-2.61A4.23,4.23,0,0,1,80,25.78c.13,1.63.13,1.63-1.48,1.63H76.67Zm-1.06-1.51h1.81c.31,0,.43-.1.37-.44a2.11,2.11,0,0,0-2.1-1.8,2.21,2.21,0,0,0-2.13,1.81c-.06.32,0,.45.36.44C74.48,25.9,75.05,25.91,75.61,25.91Z"/><path class="cls-1" d="M63.56,23.06a3.72,3.72,0,0,1,2.22-1.15c2.35-.25,3.89,1,4,3.37.08,1.85,0,3.71,0,5.56,0,.39-.16.55-.54.54a11,11,0,0,0-1.15,0c-.48,0-.63-.19-.63-.65,0-1.17,0-2.34,0-3.51,0-.5,0-1,0-1.51,0-1.19-.58-1.79-1.63-1.83a1.84,1.84,0,0,0-2.08,1.79c-.06,1.61,0,3.23,0,4.84,0,.86,0,.87-.88.86-1.55,0-1.32.12-1.33-1.32,0-2.42,0-4.84,0-7.26,0-.6.21-.81.77-.75h.24C63.44,22.05,63.44,22.05,63.56,23.06Z"/><path class="cls-1" d="M53.62,23a3.7,3.7,0,0,1,2.76-1.14A3.05,3.05,0,0,1,59.61,25c.07,2,0,4,0,6,0,.3-.11.45-.42.44h-.06c-1.67.12-1.64.12-1.68-1.55,0-1.43.09-2.86-.07-4.29-.11-1-.57-1.53-1.39-1.64a1.86,1.86,0,0,0-2.17,1.23,3.2,3.2,0,0,0-.17,1.07c0,1.49,0,3,0,4.47,0,.57-.2.73-.74.72-1.71,0-1.47.2-1.48-1.48,0-2.38,0-4.76,0-7.14,0-.56.2-.78.74-.71h.12C53.32,22.05,53.32,22.05,53.62,23Z"/><path class="cls-1" d="M86.06,31.54A4.53,4.53,0,0,1,81.6,28.6,5.26,5.26,0,0,1,83,22.84a4.73,4.73,0,0,1,5.49-.33c1.59,1,1.29.81.26,2-.21.25-.38.28-.64.05a2.82,2.82,0,0,0-2.12-.72,2.31,2.31,0,0,0-2.09,1.49,3.27,3.27,0,0,0-.08,2.42A2.64,2.64,0,0,0,87.9,29c.46-.32.69-.31,1.07.11.81.91.84,1-.19,1.62A4.51,4.51,0,0,1,86.06,31.54Z"/><path class="cls-1" d="M92.05,26.85c0-.91,0-1.63,0-2.36,0-.42-.12-.58-.55-.54s-.73.15-.85-.23a2.07,2.07,0,0,1,0-1.43c.11-.26.48-.16.73-.14.5,0,.66-.17.66-.67,0-1.59-.17-1.38,1.37-1.39.94,0,.94,0,.94,1,0,1.18-.09,1.08,1.08,1.08s1.41.47,1.09,1.53c-.07.23-.22.25-.41.25-.4,0-.81,0-1.21,0s-.55.11-.55.52c0,1.35,0,2.7,0,4.05,0,.67.25.9.92.93a2.55,2.55,0,0,1,.48,0c.27,0,.68-.31.8.1a2.69,2.69,0,0,1,0,1.66c-.07.17-.31.18-.49.2a7.41,7.41,0,0,1-2,0,2.14,2.14,0,0,1-1.87-1.87A19,19,0,0,1,92.05,26.85Z"/><path class="cls-1" d="M84.15,12.67c0-1.41,0-2.83,0-4.24,0-.51.19-.66.67-.66,1.81,0,1.81,0,1.81,1.75,0,2.44,0,4.88,0,7.33,0,.58-.18.81-.76.75a5.67,5.67,0,0,0-1.09,0c-.47,0-.64-.16-.63-.63C84.17,15.53,84.15,14.1,84.15,12.67Z"/><path class="cls-1" d="M85.43,6.46A1.45,1.45,0,0,1,83.92,5a1.52,1.52,0,0,1,1.52-1.48A1.56,1.56,0,0,1,87,5,1.5,1.5,0,0,1,85.43,6.46Z"/></g></g></svg>